<svg width="780" height="353" viewBox="0 0 780 353" fill="none" xmlns="http://www.w3.org/2000/svg">
<path d="M586.679 262.502L590.825 234.804L596.209 234.827C598.752 234.896 600.654 235.973 601.891 238.08C603.151 240.188 603.586 242.937 603.22 246.351L602.647 250.795C602.143 254.576 600.997 257.485 599.165 259.501C597.332 261.517 595.018 262.525 592.2 262.502H586.679ZM593.346 237.783L590.069 259.478L592.223 259.501C594.262 259.524 595.934 258.814 597.217 257.371C598.5 255.927 599.325 253.751 599.714 250.864L600.333 246.213C600.448 245.205 600.493 244.22 600.471 243.235C600.425 241.54 600.012 240.234 599.279 239.295C598.546 238.355 597.492 237.851 596.141 237.806L593.346 237.783Z" fill="#141414"/>
<path d="M611.811 262.869C609.818 262.846 608.306 262.021 607.321 260.372C606.336 258.722 605.969 256.5 606.221 253.682L606.427 251.643C606.771 248.459 607.619 245.939 608.97 244.152C610.322 242.342 612.04 241.471 614.102 241.54C615.797 241.586 617.057 242.25 617.928 243.556C618.776 244.839 619.188 246.649 619.142 248.986L619.005 251.277L618.753 253.224L609.176 253.201C609.039 254.347 608.97 255.24 608.97 255.881C608.993 257.164 609.268 258.172 609.795 258.906C610.322 259.639 611.078 260.005 612.063 260.028C612.773 260.051 613.461 259.891 614.148 259.547C614.835 259.203 615.568 258.585 616.324 257.714L617.653 259.868C616.943 260.922 616.072 261.724 615.041 262.205C614.033 262.663 612.934 262.892 611.811 262.869ZM613.942 244.404C611.994 244.312 610.62 245.664 609.841 248.482L609.406 250.337L616.256 250.36L616.347 249.856C616.416 249.283 616.439 248.665 616.439 248.023C616.393 245.709 615.545 244.518 613.942 244.404Z" fill="#141414"/>
<path d="M629.955 257.073C630.093 255.859 629.52 254.873 628.214 254.072L625.992 252.743C624.846 252.01 624.045 251.231 623.586 250.406C623.128 249.581 622.922 248.619 622.991 247.542C623.082 245.801 623.701 244.358 624.846 243.235C625.992 242.113 627.39 241.54 629.039 241.563C630.643 241.609 631.88 242.227 632.773 243.373C633.667 244.541 634.102 246.007 634.033 247.817H631.215C631.238 246.786 631.032 245.984 630.62 245.389C630.207 244.793 629.612 244.495 628.879 244.472C628.031 244.472 627.344 244.747 626.794 245.297C626.244 245.847 625.923 246.557 625.809 247.428C625.671 248.459 626.107 249.306 627.115 249.948L629.91 251.574C631.972 252.903 632.934 254.644 632.819 256.821C632.705 258.676 632.063 260.166 630.872 261.288C629.681 262.388 628.237 262.938 626.542 262.869C624.892 262.846 623.564 262.228 622.555 261.013C621.525 259.799 621.043 258.241 621.112 256.317L623.976 256.34C623.953 257.531 624.182 258.424 624.663 259.043C625.144 259.662 625.809 259.959 626.679 259.959C627.596 259.959 628.352 259.685 628.947 259.158C629.543 258.631 629.864 257.943 629.955 257.073Z" fill="#141414"/>
<path d="M638.845 262.502H635.981L639.074 241.929H641.938L638.845 262.502ZM639.738 236.477C639.761 235.927 639.922 235.446 640.197 235.056C640.472 234.667 640.884 234.438 641.365 234.415C641.846 234.392 642.236 234.575 642.533 234.965C642.831 235.354 642.992 235.835 642.969 236.431C642.946 236.981 642.785 237.462 642.488 237.874C642.19 238.264 641.8 238.47 641.296 238.493C640.815 238.516 640.426 238.332 640.128 237.943C639.853 237.531 639.715 237.049 639.738 236.477Z" fill="#141414"/>
<path d="M651.537 241.54C653.278 241.586 654.538 242.502 655.317 244.243L655.913 241.929H658.501L655.454 262.686C655.271 264.312 654.859 265.733 654.217 266.97C653.576 268.207 652.751 269.123 651.72 269.765C650.689 270.406 649.521 270.681 648.215 270.636C647.276 270.613 646.336 270.338 645.397 269.857C644.458 269.353 643.679 268.711 643.106 267.955L644.458 265.687C645.534 267.039 646.749 267.726 648.1 267.772C649.292 267.818 650.277 267.428 651.056 266.603C651.835 265.779 652.339 264.541 652.591 262.869L653.026 260.463C651.858 262.136 650.483 262.938 648.902 262.869C647.367 262.846 646.199 262.159 645.42 260.807C644.641 259.455 644.229 257.623 644.251 255.263C644.251 254.255 644.366 252.903 644.572 251.162C644.962 247.978 645.741 245.572 646.909 243.9C648.055 242.273 649.589 241.471 651.537 241.54ZM647.069 256.088C647.115 258.608 648.032 259.891 649.773 259.914C651.102 259.959 652.27 259.089 653.324 257.348L654.859 247.038C654.286 245.412 653.37 244.587 652.11 244.518C649.475 244.404 647.894 246.649 647.367 251.254C647.138 253.453 647.024 255.08 647.069 256.088Z" fill="#141414"/>
<path d="M665.512 241.906L665.122 244.152C666.428 242.387 667.894 241.517 669.544 241.54C670.666 241.563 671.583 241.998 672.247 242.869C672.911 243.739 673.278 244.93 673.37 246.443C673.415 247.313 673.393 248.184 673.324 249.008L671.377 262.502H668.536L670.506 248.963L670.575 247.451C670.575 245.503 669.887 244.518 668.49 244.495C667.367 244.449 666.291 245.205 665.328 246.717L664.824 247.542L662.579 262.502H659.715L662.808 241.929L665.512 241.906Z" fill="#141414"/>
<path d="M695.181 255.355C695.295 254.209 695.135 253.224 694.677 252.445C694.218 251.666 693.302 250.91 691.882 250.2C690.461 249.49 689.384 248.756 688.628 248.023C687.048 246.465 686.337 244.495 686.498 242.135C686.658 239.913 687.437 238.058 688.858 236.568C690.278 235.102 691.996 234.369 694.012 234.438C695.96 234.484 697.472 235.308 698.594 236.866C699.717 238.447 700.198 240.417 700.061 242.8H697.082C697.197 241.059 696.968 239.73 696.395 238.814C695.822 237.897 694.975 237.439 693.829 237.416C692.638 237.393 691.653 237.806 690.851 238.653C690.049 239.501 689.591 240.646 689.453 242.044C689.339 243.075 689.545 243.991 690.072 244.793C690.599 245.595 691.515 246.305 692.844 246.947C694.15 247.588 695.181 248.252 695.937 248.986C697.586 250.543 698.319 252.651 698.136 255.309C697.976 257.554 697.174 259.41 695.776 260.83C694.356 262.25 692.592 262.938 690.461 262.892C688.445 262.846 686.841 262.021 685.627 260.463C684.413 258.906 683.863 256.89 683.978 254.484L686.956 254.507C686.841 256.133 687.094 257.439 687.758 258.424C688.399 259.41 689.362 259.891 690.645 259.937C691.836 259.982 692.867 259.593 693.714 258.768C694.562 257.943 695.02 256.775 695.181 255.355Z" fill="#141414"/>
<path d="M706.131 256.844L711.538 241.906H714.654L705.421 265.687C704.803 267.405 704.047 268.711 703.176 269.605C702.305 270.475 701.366 270.91 700.358 270.865C700.014 270.842 699.487 270.727 698.731 270.521L699.006 267.657L699.625 267.772C701.068 267.84 702.191 266.993 702.993 265.229L704.207 262.113L702.191 241.906H705.192L706.131 256.844Z" fill="#141414"/>
<path d="M723.703 257.073C723.841 255.859 723.268 254.873 721.962 254.072L719.74 252.743C718.595 252.01 717.793 251.231 717.334 250.406C716.876 249.581 716.67 248.619 716.739 247.542C716.83 245.801 717.449 244.358 718.595 243.235C719.74 242.113 721.138 241.54 722.787 241.563C724.391 241.609 725.628 242.227 726.521 243.373C727.415 244.541 727.85 246.007 727.781 247.817H724.964C724.986 246.786 724.78 245.984 724.368 245.389C723.955 244.793 723.36 244.495 722.627 244.472C721.779 244.472 721.092 244.747 720.542 245.297C719.992 245.847 719.671 246.557 719.557 247.428C719.419 248.459 719.855 249.306 720.863 249.948L723.658 251.574C725.72 252.903 726.682 254.644 726.567 256.821C726.453 258.676 725.811 260.166 724.62 261.288C723.429 262.388 721.985 262.938 720.29 262.869C718.64 262.846 717.312 262.228 716.304 261.013C715.273 259.799 714.791 258.241 714.86 256.317L717.724 256.34C717.701 257.531 717.93 258.424 718.411 259.043C718.892 259.662 719.557 259.959 720.427 259.959C721.344 259.959 722.1 259.685 722.695 259.158C723.291 258.631 723.612 257.943 723.703 257.073Z" fill="#141414"/>
<path d="M737.083 236.935L736.327 241.906H738.961L738.549 244.633H735.937L734.059 257.439L734.036 258.195C733.99 259.272 734.333 259.822 735.044 259.822C735.319 259.845 735.708 259.776 736.235 259.639L735.983 262.502C735.364 262.754 734.746 262.869 734.127 262.846C733.119 262.846 732.363 262.365 731.859 261.426C731.355 260.463 731.172 259.135 731.286 257.394L733.096 244.656H730.439L730.874 241.929H733.509L734.265 236.958H737.083V236.935Z" fill="#141414"/>
<path d="M746.018 262.869C744.024 262.846 742.512 262.021 741.527 260.372C740.542 258.722 740.176 256.5 740.428 253.682L740.634 251.643C740.977 248.459 741.825 245.939 743.177 244.152C744.528 242.342 746.247 241.471 748.309 241.54C750.004 241.586 751.264 242.25 752.135 243.556C752.982 244.839 753.395 246.649 753.349 248.986L753.211 251.277L752.959 253.224L743.383 253.201C743.246 254.347 743.177 255.24 743.177 255.881C743.2 257.164 743.475 258.172 744.002 258.906C744.528 259.639 745.284 260.005 746.27 260.028C746.98 260.051 747.667 259.891 748.354 259.547C749.042 259.203 749.775 258.585 750.531 257.714L751.86 259.868C751.149 260.922 750.279 261.724 749.248 262.205C748.217 262.663 747.14 262.892 746.018 262.869ZM748.125 244.404C746.178 244.312 744.803 245.664 744.024 248.482L743.589 250.337L750.439 250.36L750.531 249.856C750.6 249.283 750.622 248.665 750.622 248.023C750.577 245.709 749.752 244.518 748.125 244.404Z" fill="#141414"/>
<path d="M760.634 241.906L760.291 243.831C761.551 242.25 763.017 241.494 764.689 241.54C765.56 241.563 766.316 241.815 766.98 242.319C767.645 242.823 768.103 243.533 768.378 244.495C769.798 242.479 771.425 241.494 773.235 241.517C774.426 241.563 775.388 241.998 776.076 242.823C776.763 243.67 777.175 244.816 777.29 246.328C777.358 247.199 777.358 248.092 777.267 248.963L775.297 262.48H772.479L774.426 248.917L774.472 247.313C774.449 246.42 774.243 245.709 773.853 245.205C773.464 244.701 772.914 244.449 772.181 244.449C771.31 244.426 770.531 244.839 769.844 245.664C769.157 246.488 768.721 247.496 768.584 248.642V248.734L766.545 262.434H763.681L765.652 248.894C765.697 248.39 765.697 247.863 765.674 247.336C765.606 245.48 764.85 244.518 763.429 244.449C762.078 244.426 760.955 245.274 760.039 246.992L757.725 262.434H754.884L757.977 241.861L760.634 241.906Z" fill="#141414"/>
<path fill-rule="evenodd" clip-rule="evenodd" d="M643.839 -1.52588e-05H715.524L538.339 181.928L565.143 276.592H493.481L482.805 238.928L372.058 352.63H300.373L466.653 181.928L440.399 89.2572H512.084L522.187 124.905L643.839 -1.52588e-05ZM676.004 77.367L723.749 28.3396L779.305 209.374H582.509L573.643 182.111L601.089 154.276H700.129L676.004 77.367ZM381.405 232.651H250.337L234.346 276.592H338.587L381.405 232.651ZM302.526 89.3947H404.613L417.053 133.336H286.512L302.526 89.3947ZM423.033 154.413H279.662H243.006L266.672 89.3947H200.508L176.842 154.413H138.239L118.216 209.374H156.819L132.328 276.592H198.492L222.983 209.374H260.716H404.063L430.662 181.859L423.033 154.413ZM134.344 89.3947L110.678 154.413L90.6548 209.374L66.164 276.592H0L68.1801 89.3947H134.344Z" fill="url(#paint0_linear_25_9672)"/>
<defs>
<linearGradient id="paint0_linear_25_9672" x1="389.653" y1="0" x2="389.653" y2="352.63" gradientUnits="userSpaceOnUse">
<stop stop-color="#A080FF"/>
<stop offset="1" stop-color="#604D99"/>
</linearGradient>
</defs>
</svg>
